<svg width="26" height="26" viewBox="0 0 26 26" fill="none" xmlns="http://www.w3.org/2000/svg">
<path opacity="0.4" d="M6.17908 3.90002C6.26033 4.07065 6.32126 4.25752 6.35783 4.44846C6.98345 7.73096 7.60908 11.0175 8.2347 14.3H19.955C21.2794 14.3 22.4372 13.4144 22.7785 12.1347L24.4441 5.94752C24.7244 4.91565 23.9444 3.90002 22.876 3.90002H6.17908Z" fill="#C7C7CC"/>
<path d="M1.29999 3.57498C1.29999 3.03466 1.73468 2.59998 2.27499 2.59998H4.12343C5.21624 2.59998 6.15468 3.37591 6.3578 4.44841L8.45405 15.4578C8.54343 15.9169 8.94561 16.25 9.4128 16.25H21.125C21.6653 16.25 22.1 16.6847 22.1 17.225C22.1 17.7653 21.6653 18.2 21.125 18.2H9.4128C8.00717 18.2 6.80061 17.2006 6.54061 15.8234L4.44436 4.81404C4.41593 4.65966 4.28186 4.54998 4.12343 4.54998H2.27499C1.73468 4.54998 1.29999 4.11529 1.29999 3.57498ZM6.49999 21.45C6.49999 21.1939 6.55043 20.9403 6.64842 20.7037C6.74642 20.4672 6.89005 20.2522 7.07113 20.0711C7.2522 19.89 7.46717 19.7464 7.70375 19.6484C7.94034 19.5504 8.19391 19.5 8.44999 19.5C8.70607 19.5 8.95964 19.5504 9.19622 19.6484C9.43281 19.7464 9.64777 19.89 9.82885 20.0711C10.0099 20.2522 10.1536 20.4672 10.2516 20.7037C10.3495 20.9403 10.4 21.1939 10.4 21.45C10.4 21.7061 10.3495 21.9596 10.2516 22.1962C10.1536 22.4328 10.0099 22.6478 9.82885 22.8288C9.64777 23.0099 9.43281 23.1535 9.19622 23.2515C8.95964 23.3495 8.70607 23.4 8.44999 23.4C8.19391 23.4 7.94034 23.3495 7.70375 23.2515C7.46717 23.1535 7.2522 23.0099 7.07113 22.8288C6.89005 22.6478 6.74642 22.4328 6.64842 22.1962C6.55043 21.9596 6.49999 21.7061 6.49999 21.45ZM20.15 19.5C20.6672 19.5 21.1631 19.7054 21.5288 20.0711C21.8945 20.4368 22.1 20.9328 22.1 21.45C22.1 21.9671 21.8945 22.4631 21.5288 22.8288C21.1631 23.1945 20.6672 23.4 20.15 23.4C19.6328 23.4 19.1368 23.1945 18.7711 22.8288C18.4054 22.4631 18.2 21.9671 18.2 21.45C18.2 20.9328 18.4054 20.4368 18.7711 20.0711C19.1368 19.7054 19.6328 19.5 20.15 19.5Z" fill="#C7C7CC"/>
</svg>
