<svg width="33" height="11" viewBox="0 0 33 11" fill="none" xmlns="http://www.w3.org/2000/svg">
<path fill-rule="evenodd" clip-rule="evenodd" d="M5.60842 10.8307C2.61107 10.8307 0.172607 8.43933 0.172607 5.50003C0.172607 2.56067 2.61107 0.169312 5.60842 0.169312H27.3914C30.3888 0.169312 32.8272 2.56067 32.8272 5.50003C32.8272 8.43933 30.3888 10.8307 27.3914 10.8307H5.60842Z" fill="white"/>
<mask id="mask0_6079_1043" style="mask-type:luminance" maskUnits="userSpaceOnUse" x="0" y="0" width="33" height="11">
<path fill-rule="evenodd" clip-rule="evenodd" d="M0 0H33V11H0V0Z" fill="white"/>
</mask>
<g mask="url(#mask0_6079_1043)">
<path fill-rule="evenodd" clip-rule="evenodd" d="M27.3915 -6.10352e-05H5.60856C2.51597 -6.10352e-05 0 2.46723 0 5.49994C0 8.53264 2.51597 11 5.60856 11H27.3915C30.484 11 33 8.53264 33 5.49994C33 2.46723 30.484 -6.10352e-05 27.3915 -6.10352e-05M27.3916 0.338637C30.2937 0.338637 32.6547 2.65399 32.6547 5.49995C32.6547 8.3459 30.2937 10.6613 27.3916 10.6613H5.60862C2.70646 10.6613 0.345424 8.3459 0.345424 5.49995C0.345424 2.65399 2.70646 0.338637 5.60862 0.338637H27.3916" fill="#ABABAB"/>
</g>
<path fill-rule="evenodd" clip-rule="evenodd" d="M29.0964 2.78245H28.2942V1.99574C28.2942 1.71686 28.0628 1.48987 27.7783 1.48987C27.4939 1.48987 27.2624 1.71686 27.2624 1.99574V2.78245H26.4603C26.1758 2.78245 25.9443 3.00937 25.9443 3.28832C25.9443 3.56726 26.1758 3.79425 26.4603 3.79425H27.2624V4.5809C27.2624 4.85991 27.4939 5.08683 27.7783 5.08683C28.0628 5.08683 28.2942 4.85991 28.2942 4.5809V3.79425H29.0964C29.3809 3.79425 29.6123 3.56726 29.6123 3.28832C29.6123 3.00937 29.3809 2.78245 29.0964 2.78245" fill="#78BE20"/>
<path fill-rule="evenodd" clip-rule="evenodd" d="M5.8857 7.11128H5.47354V4.03617H5.8857C6.98081 4.03617 7.27355 4.56081 7.27355 5.5737C7.27355 6.58665 6.97218 7.11128 5.8857 7.11128M5.85973 3.02826H4.3881C4.29955 3.02826 4.22778 3.1086 4.22778 3.20777V7.93731C4.22778 8.03641 4.29955 8.11682 4.3881 8.11682L5.85973 8.11675C7.40928 8.11675 8.54873 7.4538 8.54873 5.55184C8.54873 3.58425 7.44181 3.02826 5.85973 3.02826" fill="#E4002B"/>
<path fill-rule="evenodd" clip-rule="evenodd" d="M10.0951 4.81591V4.51258C10.0951 4.41348 10.0233 4.33314 9.93479 4.33314H9.12517C9.03661 4.33314 8.96484 4.41348 8.96484 4.51258V7.93749C8.96484 8.03659 9.03661 8.11693 9.12517 8.11693H9.93479C10.0233 8.11693 10.0951 8.03659 10.0951 7.93749V6.39171C10.0951 5.4301 10.6845 5.12473 11.2588 5.28202C11.3389 5.30403 11.4229 5.26339 11.4492 5.18597L11.687 4.48698C11.7067 4.42926 11.6759 4.36749 11.6179 4.34601C11.2432 4.20756 10.5301 4.13758 10.0951 4.81591" fill="#E4002B"/>
<path fill-rule="evenodd" clip-rule="evenodd" d="M18.2416 7.96191L17.7996 3.2113C17.7903 3.1122 17.711 3.03186 17.6225 3.03186H16.4249C16.3364 3.03186 16.2418 3.1122 16.2138 3.2113L15.3611 6.22382L14.5085 3.2113C14.4804 3.1122 14.3859 3.03186 14.2974 3.03186H13.0998C13.0112 3.03186 12.9319 3.1122 12.9226 3.2113L12.4806 7.96191C12.4713 8.06108 12.5356 8.1169 12.6242 8.1169H13.4455C13.534 8.1169 13.6133 8.06108 13.6226 7.96191L13.9599 4.86601L14.8294 7.96191C14.8522 8.04272 14.8947 8.1169 14.9855 8.1169H15.7367C15.8325 8.1169 15.87 8.04272 15.8929 7.96191L16.7623 4.86601L17.0496 7.96191C17.0589 8.06108 17.1381 8.1169 17.2267 8.1169H18.0981C18.1867 8.1169 18.2509 8.06108 18.2416 7.96191" fill="#E4002B"/>
<path fill-rule="evenodd" clip-rule="evenodd" d="M11.9151 7.61585C11.9151 7.92792 11.6684 8.18092 11.3641 8.18092C11.0597 8.18092 10.813 7.92792 10.813 7.61585C10.813 7.30385 11.0597 7.05078 11.3641 7.05078C11.6684 7.05078 11.9151 7.30385 11.9151 7.61585" fill="#E4002B"/>
<path fill-rule="evenodd" clip-rule="evenodd" d="M26.6198 7.93884L25.3099 6.17128L26.5693 4.47444C26.6198 4.40237 26.5836 4.33314 26.482 4.33307H25.5273C25.4257 4.333 25.3659 4.34729 25.2918 4.44633L24.6736 5.28222L24.0554 4.44633C23.9814 4.34729 23.9216 4.333 23.82 4.33307H22.8653C22.7636 4.33314 22.7274 4.40237 22.778 4.47444L24.0373 6.17128L22.7274 7.93884C22.6636 8.01708 22.6999 8.11686 22.7984 8.11686H23.7621C23.8629 8.11638 23.9293 8.06869 23.9884 7.98856L24.6736 7.06041L25.3589 7.98856C25.418 8.06869 25.4843 8.11638 25.5852 8.11686H26.5489C26.6473 8.11686 26.6837 8.01708 26.6198 7.93884" fill="#E4002B"/>
<path fill-rule="evenodd" clip-rule="evenodd" d="M20.3554 7.33342C20.8569 7.33342 21.1741 6.88161 21.1741 6.43711C21.0044 6.42986 20.8127 6.41523 20.6136 6.41523C20.1637 6.41523 19.8097 6.55369 19.8097 6.91805C19.8097 7.1804 20.0458 7.33342 20.3554 7.33342V7.33342ZM21.4207 8.12043C21.3211 8.12043 21.2405 8.04125 21.2405 7.94364V7.52292H21.2256C20.9233 7.99654 20.5546 8.20788 20.0089 8.20788C19.2492 8.20788 18.5708 7.83621 18.5708 7.01278C18.5708 5.85412 19.8466 5.71566 20.5546 5.71566C20.7684 5.71566 21.0044 5.73747 21.1741 5.76667C21.1667 5.24928 20.7758 5.11076 20.2964 5.11076C19.9044 5.11076 19.5274 5.17206 19.1807 5.34046C19.1372 5.36159 19.0708 5.31465 19.0697 5.2671L19.0527 4.60496C19.0511 4.54555 19.0875 4.49062 19.1443 4.46975C19.5879 4.30623 20.0538 4.23633 20.5841 4.23633C21.5649 4.23633 22.4129 4.6517 22.4129 5.81036V7.22412V7.9517C22.4129 8.04491 22.3359 8.12043 22.2409 8.12043H21.4207Z" fill="#E4002B"/>
</svg>
