<svg width="26" height="26" viewBox="0 0 26 26" fill="none" xmlns="http://www.w3.org/2000/svg">
<path d="M24.6919 12.9797C24.6919 13.7109 24.0825 14.2837 23.3919 14.2837H22.0919L22.1203 20.7919C22.1203 20.9015 22.1122 21.0112 22.1 21.1209V21.779C22.1 22.6769 21.3728 23.404 20.475 23.404H19.825C19.7803 23.404 19.7356 23.404 19.691 23.4C19.6341 23.404 19.5772 23.404 19.5203 23.404L18.2 23.4H17.225C16.3272 23.4 15.6 22.6728 15.6 21.775V20.8V18.2C15.6 17.4809 15.0191 16.9 14.3 16.9H11.7C10.981 16.9 10.4 17.4809 10.4 18.2V20.8V21.775C10.4 22.6728 9.67283 23.4 8.77501 23.4H7.80001H6.50408C6.44314 23.4 6.3822 23.3959 6.32126 23.3919C6.27251 23.3959 6.22376 23.4 6.17501 23.4H5.52501C4.6272 23.4 3.90001 22.6728 3.90001 21.775V17.225C3.90001 17.1884 3.90001 17.1478 3.90408 17.1112V14.2797H2.60408C1.87283 14.2797 1.30408 13.7109 1.30408 12.9756C1.30408 12.61 1.42595 12.285 1.71033 12.0006L12.1225 2.92498C12.4069 2.6406 12.7319 2.59998 13.0163 2.59998C13.3006 2.59998 13.6256 2.68123 13.8694 2.88435L24.245 12.0047C24.57 12.289 24.7325 12.614 24.6919 12.9797Z" fill="#47850A"/>
</svg>
