<svg width="118" height="40" viewBox="0 0 118 40" fill="none" xmlns="http://www.w3.org/2000/svg">
<path fill-rule="evenodd" clip-rule="evenodd" d="M20.0476 39.3844C9.33355 39.3844 0.617249 30.6885 0.617249 20.0002C0.617249 9.31158 9.33355 0.615723 20.0476 0.615723H97.9111C108.625 0.615723 117.341 9.31158 117.341 20.0002C117.341 30.6885 108.625 39.3844 97.9111 39.3844H20.0476Z" fill="white"/>
<mask id="mask0_6011_1044" style="mask-type:luminance" maskUnits="userSpaceOnUse" x="0" y="0" width="118" height="40">
<path fill-rule="evenodd" clip-rule="evenodd" d="M0 0H117.959V40H0V0Z" fill="white"/>
</mask>
<g mask="url(#mask0_6011_1044)">
<path fill-rule="evenodd" clip-rule="evenodd" d="M97.911 -6.10352e-05H20.0478C8.99327 -6.10352e-05 -6.10352e-05 8.97192 -6.10352e-05 19.9999C-6.10352e-05 31.028 8.99327 40.0002 20.0478 40.0002H97.911C108.965 40.0002 117.959 31.028 117.959 19.9999C117.959 8.97192 108.965 -6.10352e-05 97.911 -6.10352e-05ZM97.911 1.2314C108.285 1.2314 116.724 9.65089 116.724 19.9998C116.724 30.3487 108.285 38.7684 97.911 38.7684H20.0478C9.67401 38.7684 1.2345 30.3487 1.2345 19.9998C1.2345 9.65089 9.67401 1.2314 20.0478 1.2314H97.911Z" fill="#ABABAB"/>
</g>
<path fill-rule="evenodd" clip-rule="evenodd" d="M104.005 10.118H101.138V7.25728C101.138 6.24318 100.31 5.41776 99.2934 5.41776C98.2766 5.41776 97.4493 6.24318 97.4493 7.25728V10.118H94.5819C93.5652 10.118 92.7378 10.9432 92.7378 11.9576C92.7378 12.9719 93.5652 13.7973 94.5819 13.7973H97.4493V16.6579C97.4493 17.6725 98.2766 18.4976 99.2934 18.4976C100.31 18.4976 101.138 17.6725 101.138 16.6579V13.7973H104.005C105.022 13.7973 105.849 12.9719 105.849 11.9576C105.849 10.9432 105.022 10.118 104.005 10.118Z" fill="#78BE20"/>
<path fill-rule="evenodd" clip-rule="evenodd" d="M21.0381 25.8593H19.5648V14.677H21.0381C24.9525 14.677 25.9989 16.5848 25.9989 20.268C25.9989 23.9515 24.9217 25.8593 21.0381 25.8593ZM20.9452 11.0119H15.6849C15.3684 11.0119 15.1118 11.304 15.1118 11.6647V28.863C15.1118 29.2234 15.3684 29.5158 15.6849 29.5158L20.9452 29.5155C26.4841 29.5155 30.5571 27.1048 30.5571 20.1886C30.5571 13.0337 26.6004 11.0119 20.9452 11.0119Z" fill="#E4002B"/>
<path fill-rule="evenodd" clip-rule="evenodd" d="M36.0851 17.5124V16.4094C36.0851 16.049 35.8285 15.7569 35.512 15.7569H32.618C32.3015 15.7569 32.0449 16.049 32.0449 16.4094V28.8636C32.0449 29.2239 32.3015 29.5161 32.618 29.5161H35.512C35.8285 29.5161 36.0851 29.2239 36.0851 28.8636V23.2425C36.0851 19.7458 38.1917 18.6354 40.2447 19.2073C40.5311 19.2874 40.8311 19.1396 40.9252 18.858L41.7753 16.3162C41.8456 16.1064 41.7355 15.8817 41.5281 15.8037C40.1889 15.3002 37.6398 15.0457 36.0851 17.5124Z" fill="#E4002B"/>
<path fill-rule="evenodd" clip-rule="evenodd" d="M65.205 28.9525L63.6251 11.6776C63.5917 11.3172 63.3083 11.0251 62.9918 11.0251H58.7111C58.3946 11.0251 58.0566 11.3172 57.9564 11.6776L54.9085 22.6322L51.861 11.6776C51.7605 11.3172 51.4227 11.0251 51.1062 11.0251H46.8256C46.5088 11.0251 46.2253 11.3172 46.1922 11.6776L44.6123 28.9525C44.5789 29.3131 44.8088 29.5161 45.1254 29.5161H48.0611C48.3776 29.5161 48.6611 29.3131 48.6941 28.9525L49.9 17.6947L53.0078 28.9525C53.0896 29.2464 53.2414 29.5161 53.5661 29.5161H56.251C56.5937 29.5161 56.7277 29.2464 56.8095 28.9525L59.917 17.6947L60.9439 28.9525C60.9773 29.3131 61.2605 29.5161 61.5772 29.5161H64.692C65.0085 29.5161 65.2381 29.3131 65.205 28.9525Z" fill="#E4002B"/>
<path fill-rule="evenodd" clip-rule="evenodd" d="M42.5902 27.6941C42.5902 28.8289 41.7085 29.7489 40.6206 29.7489C39.5328 29.7489 38.6508 28.8289 38.6508 27.6941C38.6508 26.5595 39.5328 25.6393 40.6206 25.6393C41.7085 25.6393 42.5902 26.5595 42.5902 27.6941Z" fill="#E4002B"/>
<path fill-rule="evenodd" clip-rule="evenodd" d="M95.1526 28.8686L90.4703 22.4411L94.9721 16.2708C95.1526 16.0087 95.0232 15.757 94.66 15.7567H91.2473C90.8841 15.7565 90.6703 15.8084 90.4056 16.1686L88.1958 19.2082L85.986 16.1686C85.7215 15.8084 85.5077 15.7565 85.1445 15.7567H81.732C81.3686 15.757 81.2392 16.0087 81.4199 16.2708L85.9213 22.4411L81.2392 28.8686C81.011 29.1531 81.1407 29.5159 81.493 29.5159H84.9376C85.2981 29.5142 85.5351 29.3408 85.7465 29.0494L88.1958 25.6743L90.6453 29.0494C90.8567 29.3408 91.0937 29.5142 91.4542 29.5159H94.899C95.2509 29.5159 95.3808 29.1531 95.1526 28.8686Z" fill="#E4002B"/>
<path fill-rule="evenodd" clip-rule="evenodd" d="M72.7601 26.6669C74.5526 26.6669 75.6864 25.024 75.6864 23.4076C75.08 23.3812 74.3946 23.328 73.683 23.328C72.0749 23.328 70.8095 23.8315 70.8095 25.1565C70.8095 26.1105 71.6532 26.6669 72.7601 26.6669ZM76.5681 29.5288C76.2118 29.5288 75.9237 29.2408 75.9237 28.8859V27.356H75.8706C74.7901 29.0783 73.4721 29.8468 71.5213 29.8468C68.8061 29.8468 66.381 28.4952 66.381 25.5009C66.381 21.2876 70.9413 20.7841 73.4721 20.7841C74.2363 20.7841 75.08 20.8635 75.6864 20.9696C75.66 19.0882 74.2627 18.5845 72.5492 18.5845C71.1478 18.5845 69.8004 18.8074 68.5612 19.4198C68.4056 19.4966 68.1683 19.3259 68.1644 19.153L68.1034 16.7452C68.098 16.5292 68.2281 16.3294 68.4308 16.2536C70.0164 15.659 71.6821 15.4048 73.5776 15.4048C77.0834 15.4048 80.1147 16.9152 80.1147 21.1285V26.2695V28.9152C80.1147 29.2541 79.8394 29.5288 79.4999 29.5288H76.5681Z" fill="#E4002B"/>
</svg>
