<svg width="20" height="20" viewBox="0 0 20 20" fill="none" xmlns="http://www.w3.org/2000/svg">
<path d="M17.5762 3.33337C18.2189 3.33363 18.8353 3.58907 19.2898 4.04357C19.7443 4.49807 19.9997 5.11443 20 5.75718V14.2419C20 14.8849 19.7447 15.5015 19.2901 15.9562C18.8356 16.4109 18.2191 16.6665 17.5762 16.6667H2.42381C1.78105 16.6665 1.16469 16.411 0.710196 15.9565C0.255698 15.502 0.000252408 14.8857 0 14.2429V5.75718C0.000252408 5.11443 0.255698 4.49807 0.710196 4.04357C1.16469 3.58907 1.78105 3.33363 2.42381 3.33337H17.5762ZM4.51429 4.54576H2.4619C1.79238 4.54576 1.24952 5.08861 1.24952 5.75814V14.2429C1.24952 14.9124 1.79238 15.4553 2.4619 15.4553H17.5381C18.2076 15.4553 18.7505 14.9124 18.7505 14.2429V13.6362H8.58095C7.13439 13.6362 5.74707 13.0616 4.72419 12.0387C3.70131 11.0158 3.12667 9.62851 3.12667 8.18195C3.12325 6.83992 3.61767 5.54432 4.51429 4.54576ZM9.61048 7.89623C9.40095 7.81909 9.00095 7.78004 8.7581 8.15814V7.98861C8.7581 7.93337 8.7181 7.88861 8.66857 7.88861H8.21524C8.16571 7.88861 8.12571 7.93337 8.12571 7.98861V9.89909C8.12476 9.95528 8.16476 10 8.21524 10H8.66857C8.7181 10 8.7581 9.95528 8.7581 9.90004V9.03718C8.7581 8.50099 9.08857 8.33052 9.40952 8.41814C9.43075 8.42435 9.45355 8.42231 9.47333 8.41242C9.49312 8.40252 9.50843 8.38552 9.51619 8.3648L9.64952 7.97433C9.6544 7.95879 9.65306 7.94196 9.64577 7.92739C9.63849 7.91282 9.62583 7.90165 9.61048 7.89623ZM9.51429 9.32671C9.36095 9.32671 9.23619 9.47718 9.23619 9.66385C9.23619 9.84956 9.36095 10 9.51429 10C9.66762 10 9.79238 9.84956 9.79238 9.6629C9.79143 9.47718 9.66762 9.32671 9.51429 9.32671ZM16.2171 7.8448H15.7143C15.661 7.8448 15.6419 7.88385 15.6686 7.92576L16.3314 8.89242L15.6419 9.89909C15.6086 9.9429 15.6276 10 15.679 10H16.1867C16.24 10 16.2743 9.97242 16.3057 9.92671L16.6667 9.39814L17.0276 9.92671C17.059 9.97242 17.0933 10 17.1467 10H17.6543C17.7057 10 17.7257 9.9429 17.6914 9.89909L17.0019 8.89242L17.6648 7.92576C17.6914 7.8848 17.6724 7.8448 17.619 7.8448H17.1162C17.0629 7.8448 17.0314 7.85337 16.9924 7.90956L16.6667 8.38576L16.341 7.90956C16.3019 7.85337 16.2705 7.8448 16.2171 7.8448ZM11.0771 7.17147H10.4133C10.3638 7.17147 10.32 7.21623 10.3152 7.27147L10.0695 9.91433C10.0648 9.96861 10.101 10 10.1495 10H10.6048C10.6543 10 10.6981 9.96861 10.7029 9.91433L10.8895 8.19242L11.3714 9.91433C11.3848 9.95909 11.4086 10 11.4581 10H11.8743C11.9276 10 11.9486 9.95909 11.961 9.91433L12.4429 8.19242L12.6019 9.91433C12.6076 9.96861 12.6514 10 12.701 10H13.1838C13.2333 10 13.2686 9.96861 13.2638 9.91433L13.019 7.27242C13.0143 7.21718 12.9695 7.17242 12.921 7.17242H12.2571C12.2076 7.17242 12.1552 7.21718 12.14 7.27242L11.6667 8.94671L11.1943 7.27147C11.1781 7.21623 11.1257 7.17147 11.0771 7.17147ZM6.51714 7.1248H5.71238C5.66381 7.1248 5.62476 7.16956 5.62476 7.2248V9.85337C5.62476 9.90861 5.66381 9.95337 5.71238 9.95337H6.51619C7.36286 9.95337 7.98571 9.5848 7.98571 8.52766C7.98571 7.43337 7.38095 7.1248 6.51714 7.1248ZM14.4943 7.79814C14.2067 7.79814 13.9543 7.83623 13.7133 7.9248C13.6985 7.93035 13.6857 7.9404 13.6768 7.95354C13.668 7.96669 13.6634 7.98228 13.6638 7.99814L13.6733 8.35718C13.6743 8.3829 13.7095 8.40861 13.7333 8.39718C13.9227 8.30984 14.1296 8.26716 14.3381 8.27242C14.5981 8.27242 14.8095 8.34766 14.8143 8.62861C14.7031 8.61039 14.5907 8.60115 14.4781 8.60099C14.0943 8.60099 13.4029 8.67623 13.4029 9.3048C13.4029 9.75147 13.7705 9.95337 14.1829 9.95337C14.479 9.95337 14.679 9.83909 14.8429 9.58195L14.8505 9.81052C14.8505 9.86385 14.8943 9.90671 14.9486 9.90671H15.3933C15.4055 9.90683 15.4175 9.90457 15.4288 9.90004C15.44 9.89551 15.4503 9.88881 15.4589 9.88032C15.4676 9.87183 15.4745 9.86172 15.4793 9.85056C15.484 9.8394 15.4865 9.82741 15.4867 9.81528V8.65337C15.4857 8.0229 15.0267 7.79814 14.4943 7.79814ZM14.5067 9.01052C14.6076 9.01052 14.7057 9.01909 14.7924 9.0229C14.7924 9.28385 14.6305 9.54861 14.3752 9.54861C14.2181 9.54861 14.0971 9.45909 14.0971 9.3048C14.0971 9.09147 14.2771 9.01052 14.5067 9.01052ZM6.5419 7.6629C7.13333 7.6629 7.29143 7.96195 7.29143 8.53814C7.29143 9.11433 7.12857 9.41433 6.5419 9.41433H6.31905V7.6629H6.5419ZM18.4029 6.36385C18.3315 6.36283 18.2627 6.39013 18.2115 6.43975C18.1602 6.48938 18.1308 6.55729 18.1295 6.62861V7.04099H17.7048C17.5543 7.04099 17.4314 7.16004 17.4314 7.30575C17.4314 7.45147 17.5543 7.57052 17.7048 7.57052H18.1295V7.9829C18.1295 8.12956 18.2524 8.24766 18.4029 8.24766C18.5533 8.24766 18.6762 8.12861 18.6762 7.9829V7.57147H19.1019C19.2524 7.57147 19.3752 7.45242 19.3752 7.30671C19.3752 7.16099 19.2524 7.04195 19.1019 7.04195H18.6762V6.62861C18.6749 6.55729 18.6455 6.48938 18.5942 6.43975C18.543 6.39013 18.4742 6.36283 18.4029 6.36385Z" fill="white"/>
</svg>
