<svg width="213" height="213" viewBox="0 0 213 213" fill="none" xmlns="http://www.w3.org/2000/svg">
<path d="M108.746 144.19C108.511 130.748 113.464 117.767 122.515 108.101C131.566 98.4354 143.973 92.8775 157.007 92.65C170.042 92.4224 182.636 97.544 192.018 106.888C201.401 116.232 206.804 129.033 207.038 142.474C207.273 155.916 202.32 168.898 193.269 178.563C184.219 188.229 171.811 193.787 158.777 194.014C145.742 194.242 133.149 189.12 123.766 179.776C114.383 170.433 108.98 157.632 108.746 144.19ZM168.818 116.032C166.813 114.589 164.084 114.707 162.2 116.324L135.29 139.326C133.507 140.836 132.834 143.382 133.659 145.621C134.483 147.86 136.557 149.338 138.878 149.297L150.107 149.101L144.94 164.119C144.128 166.492 144.96 169.153 146.966 170.632C148.972 172.111 151.7 171.958 153.584 170.34L180.494 147.338C182.277 145.829 182.95 143.282 182.126 141.043C181.301 138.804 179.227 137.327 176.906 137.367L165.678 137.563L170.844 122.545C171.656 120.172 170.824 117.511 168.818 116.032Z" fill="#E4002B"/>
<path d="M90.7827 34.3419L96.0293 41.5381L101.021 34.1632C109.341 21.8365 122.935 14.3818 137.509 14.1274C162.594 13.6896 183.301 34.3113 183.753 60.1803L183.769 61.0954C183.877 67.2899 182.827 73.6454 180.856 80.0522C173.363 77.1553 165.211 75.6076 156.713 75.756C120.535 76.3875 91.7125 107.168 92.3637 144.476C92.5388 154.507 94.8213 164.008 98.7937 172.529C98.623 172.532 98.4865 172.535 98.3159 172.537C93.0258 172.63 87.7757 171.102 83.5195 167.832C58.2628 148.662 9.71523 103.635 9.02593 64.1456L9.00996 63.2305C8.55841 37.3614 28.5334 16.0296 53.6185 15.5917C68.1918 15.3373 82.0378 22.313 90.7827 34.3419Z" fill="#78BE20"/>
</svg>
