<svg width="26" height="26" viewBox="0 0 26 26" fill="none" xmlns="http://www.w3.org/2000/svg">
<path opacity="0.4" d="M3.89999 13C3.89999 12.2809 4.48093 11.7 5.19999 11.7H20.8C21.5191 11.7 22.1 12.2809 22.1 13C22.1 13.719 21.5191 14.3 20.8 14.3H5.19999C4.48093 14.3 3.89999 13.719 3.89999 13Z" fill="#47850A"/>
<path d="M22.1 6.49995C22.1 5.78089 21.5191 5.19995 20.8 5.19995H5.19999C4.48093 5.19995 3.89999 5.78089 3.89999 6.49995C3.89999 7.21901 4.48093 7.79995 5.19999 7.79995H20.8C21.5191 7.79995 22.1 7.21901 22.1 6.49995ZM22.1 19.5C22.1 18.7809 21.5191 18.2 20.8 18.2H5.19999C4.48093 18.2 3.89999 18.7809 3.89999 19.5C3.89999 20.219 4.48093 20.8 5.19999 20.8H20.8C21.5191 20.8 22.1 20.219 22.1 19.5Z" fill="#47850A"/>
</svg>
