<svg width="371" height="608" viewBox="0 0 371 608" fill="none" xmlns="http://www.w3.org/2000/svg">
<path opacity="0.4" d="M128.128 550.247C114.937 563.439 114.937 584.862 128.128 598.054C141.32 611.245 162.743 611.245 175.934 598.054L248.013 525.975C260.15 513.839 269.014 498.748 273.763 482.179L276.085 474.158L227.54 432.579C224.902 430.257 222.263 427.935 219.731 425.402L208.755 463.605C207.172 469.093 204.217 474.158 200.207 478.169L128.128 550.247Z" fill="#78BE20"/>
<path d="M287.062 118.197C294.823 118.197 302.508 116.668 309.678 113.698C316.848 110.728 323.363 106.375 328.851 100.887C334.339 95.3993 338.692 88.8844 341.662 81.7142C344.632 74.5441 346.16 66.8592 346.16 59.0983C346.16 51.3374 344.632 43.6525 341.662 36.4824C338.692 29.3122 334.339 22.7973 328.851 17.3095C323.363 11.8217 316.848 7.46856 309.678 4.49859C302.508 1.52862 294.823 -1.15646e-07 287.062 0C279.301 -1.15646e-07 271.616 1.52862 264.446 4.49859C257.276 7.46856 250.761 11.8217 245.273 17.3095C239.785 22.7973 235.432 29.3122 232.462 36.4824C229.492 43.6525 227.964 51.3374 227.964 59.0983C227.964 66.8592 229.492 74.5441 232.462 81.7142C235.432 88.8844 239.785 95.3993 245.273 100.887C250.761 106.375 257.276 110.728 264.446 113.698C271.616 116.668 279.301 118.197 287.062 118.197ZM195.671 274.279L219.521 250.429V323.563C219.521 353.112 232.396 381.29 254.875 400.496L330.225 465.082C336.451 470.465 340.567 477.852 341.728 485.978L355.025 578.952C357.663 597.42 374.76 610.295 393.228 607.657C411.696 605.019 424.571 587.922 421.933 569.454L408.636 476.48C405.153 452.102 392.911 429.94 374.232 413.899L337.823 382.661V261.088L341.833 266.048C361.04 290.109 390.167 304.04 420.983 304.04H456.02C474.699 304.04 489.79 288.948 489.79 270.269C489.79 251.59 474.699 236.499 456.02 236.499H420.983C410.746 236.499 401.037 231.855 394.6 223.835L375.709 200.195C351.437 169.802 314.606 152.073 275.664 152.073C241.683 152.073 209.073 165.581 185.117 189.642L147.864 226.473C128.869 245.469 118.21 271.219 118.21 298.13V337.705C118.21 356.384 133.301 371.475 151.98 371.475C170.659 371.475 185.751 356.384 185.751 337.705V298.13C185.751 289.16 189.339 280.611 195.671 274.279Z" fill="#78BE20"/>
</svg>
