<svg width="26" height="26" viewBox="0 0 26 26" fill="none" xmlns="http://www.w3.org/2000/svg">
<path opacity="0.4" d="M4.42004 2.63256V23.3676C4.42004 23.7876 4.66583 24.1675 5.04567 24.3417C5.18867 24.4088 5.34061 24.4401 5.49254 24.4401C5.74279 24.4401 5.99304 24.3507 6.18967 24.1809L7.99504 22.6347L9.80042 24.1809C10.2026 24.525 10.797 24.525 11.1947 24.1809L13 22.6347L14.8054 24.1809C15.2076 24.525 15.802 24.525 16.1997 24.1809L18.005 22.6347L19.8104 24.1809C20.007 24.3507 20.2573 24.4401 20.5075 24.4401C20.6595 24.4401 20.8114 24.4088 20.9544 24.3417C21.3343 24.1675 21.58 23.7876 21.58 23.3676V2.63256C21.58 2.2125 21.3343 1.83265 20.9544 1.65837C20.8114 1.59134 20.6595 1.56006 20.5075 1.56006C20.2573 1.56006 20.007 1.64943 19.8104 1.81925L18.005 3.36543L16.1997 1.81925C15.7975 1.47515 15.2031 1.47515 14.8054 1.81925L13 3.36543L11.1947 1.81925C10.7925 1.47515 10.1981 1.47515 9.80042 1.81925L7.99504 3.36543L6.18967 1.81925C5.99304 1.64943 5.74279 1.56006 5.49254 1.56006C5.34061 1.56006 5.18867 1.59134 5.04567 1.65837C4.66583 1.83265 4.42004 2.2125 4.42004 2.63256ZM7.99504 8.71006C7.99504 8.31681 8.31679 7.99506 8.71004 7.99506H17.29C17.6833 7.99506 18.005 8.31681 18.005 8.71006C18.005 9.10331 17.6833 9.42506 17.29 9.42506H8.71004C8.31679 9.42506 7.99504 9.10331 7.99504 8.71006ZM7.99504 13.0001C7.99504 12.6068 8.31679 12.2851 8.71004 12.2851H17.29C17.6833 12.2851 18.005 12.6068 18.005 13.0001C18.005 13.3933 17.6833 13.7151 17.29 13.7151H8.71004C8.31679 13.7151 7.99504 13.3933 7.99504 13.0001ZM7.99504 17.2901C7.99504 16.8968 8.31679 16.5751 8.71004 16.5751H17.29C17.6833 16.5751 18.005 16.8968 18.005 17.2901C18.005 17.6833 17.6833 18.0051 17.29 18.0051H8.71004C8.31679 18.0051 7.99504 17.6833 7.99504 17.2901Z" fill="#C7C7CC"/>
<path d="M7.99503 8.71C7.99503 8.31675 8.31678 7.995 8.71003 7.995H17.29C17.6833 7.995 18.005 8.31675 18.005 8.71C18.005 9.10325 17.6833 9.425 17.29 9.425H8.71003C8.31678 9.425 7.99503 9.10325 7.99503 8.71ZM7.99503 17.29C7.99503 16.8967 8.31678 16.575 8.71003 16.575H17.29C17.6833 16.575 18.005 16.8967 18.005 17.29C18.005 17.6832 17.6833 18.005 17.29 18.005H8.71003C8.31678 18.005 7.99503 17.6832 7.99503 17.29ZM8.71003 12.285H17.29C17.6833 12.285 18.005 12.6067 18.005 13C18.005 13.3932 17.6833 13.715 17.29 13.715H8.71003C8.31678 13.715 7.99503 13.3932 7.99503 13C7.99503 12.6067 8.31678 12.285 8.71003 12.285Z" fill="#C7C7CC"/>
</svg>
