<svg width="26" height="26" viewBox="0 0 26 26" fill="none" xmlns="http://www.w3.org/2000/svg">
<path opacity="0.4" d="M1.29999 8.45002V11.7V13H2.59999H9.09999H10.4V11.7V8.45002C10.4 5.93534 8.36468 3.90002 5.84999 3.90002C3.3353 3.90002 1.29999 5.93534 1.29999 8.45002ZM11.7 15.6C11.7 19.1913 14.6087 22.1 18.2 22.1C19.3741 22.1 20.475 21.7872 21.4256 21.2428C21.9253 20.9544 21.9578 20.28 21.5515 19.8697L13.9303 12.2485C13.524 11.8422 12.8456 11.8707 12.5572 12.3744C12.0128 13.325 11.7 14.426 11.7 15.6ZM14.8484 11.3303L22.4697 18.9516C22.8759 19.3578 23.5544 19.3294 23.8428 18.8257C24.3872 17.875 24.7 16.7741 24.7 15.6C24.7 12.0088 21.7912 9.10002 18.2 9.10002C17.0259 9.10002 15.925 9.41284 14.9744 9.95721C14.4747 10.2456 14.4422 10.92 14.8484 11.3303Z" fill="#C7C7CC"/>
<path d="M2.59999 13H1.29999V14.3V17.55C1.29999 20.0647 3.3353 22.1 5.84999 22.1C8.36468 22.1 10.4 20.0647 10.4 17.55V14.3V13H9.09999H2.59999Z" fill="#C7C7CC"/>
</svg>
